<svg width="27" height="27" viewBox="0 0 27 27" fill="none" xmlns="http://www.w3.org/2000/svg">
<g clip-path="url(#clip0_4_466)">
<path d="M22.2071 8.33291C21.8255 8.33291 21.4621 8.41255 21.1321 8.55564C20.731 7.54182 19.7469 6.82309 18.5986 6.82309C18.172 6.82309 17.768 6.92236 17.4082 7.09891C16.9529 6.221 16.0402 5.61982 14.9902 5.61982C14.6816 5.61982 14.3852 5.67246 14.1083 5.76818V2.74555C14.1084 1.23173 12.8852 0 11.3816 0C9.87813 0 8.65504 1.23173 8.65504 2.74555V13.6222L6.69123 11.3755C6.6775 11.3601 6.6635 11.345 6.64895 11.3305C6.13332 10.8145 5.44704 10.5285 4.71659 10.5249C4.71186 10.5249 4.70741 10.5249 4.70268 10.5249C3.97395 10.5249 3.29168 10.8063 2.78032 11.318C1.87868 12.2199 1.82877 13.5586 2.64377 14.9915C3.69877 16.8451 4.84559 18.5929 5.8575 20.1352C6.59695 21.2623 7.2955 22.3268 7.80613 23.207C8.24895 23.9708 9.42441 26.448 9.43641 26.473C9.58895 26.7949 9.91341 27.0001 10.2694 27.0001H21.9303C22.331 27.0001 22.6856 26.7416 22.8084 26.3605C23.0259 25.6843 24.9338 19.688 24.9338 17.3723V11.0787C24.9336 9.56455 23.7106 8.33291 22.2071 8.33291ZM21.3253 11.0786C21.3253 10.5815 21.721 10.1772 22.2071 10.1772C22.6936 10.1772 23.0892 10.5815 23.0892 11.0786V17.3722C23.0892 18.9111 21.9065 23.0483 21.2539 25.1556H10.851C10.4686 24.36 9.75195 22.8862 9.4015 22.2817C8.86541 21.3574 8.15332 20.2722 7.3995 19.1232C6.40259 17.6041 5.27286 15.8821 4.24668 14.0794C3.97886 13.6084 3.73341 12.9734 4.08486 12.6219C4.24877 12.4576 4.4695 12.3718 4.70768 12.3693C4.94013 12.3705 5.15877 12.4581 5.32632 12.6166L8.88304 16.6853C9.13577 16.9746 9.54195 17.0767 9.90141 16.9417C10.2612 16.8066 10.4995 16.4625 10.4995 16.0784V2.74555C10.4995 2.24855 10.8952 1.84436 11.3817 1.84436C11.8682 1.84436 12.264 2.24855 12.264 2.74555V11.3556C12.264 11.8649 12.677 12.2778 13.1862 12.2778C13.6954 12.2778 14.1084 11.8649 14.1084 11.3556V8.36509C14.1084 7.86836 14.504 7.46427 14.9903 7.46427C15.4768 7.46427 15.8724 7.86836 15.8724 8.36509V12.5585C15.8724 13.068 16.2853 13.4807 16.7945 13.4807C17.3038 13.4807 17.7168 13.0681 17.7168 12.5585V9.56864C17.7168 9.07164 18.1124 8.66737 18.5987 8.66737C19.0852 8.66737 19.481 9.07164 19.481 9.56864V13.7623C19.481 14.2715 19.894 14.6845 20.4032 14.6845C20.9126 14.6845 21.3255 14.2715 21.3255 13.7623V11.0786H21.3253Z" fill="black"/>
</g>
<defs>
<clipPath id="clip0_4_466">
<rect width="27" height="27" fill="white"/>
</clipPath>
</defs>
</svg>
